<svg version="1.1" viewBox="0.0 0.0 680.0 421.0" fill="none" stroke="none" stroke-linecap="square" stroke-miterlimit="10" width="680" height="421" xmlns:xlink="http://www.w3.org/1999/xlink" xmlns="http://www.w3.org/2000/svg"><path fill="#ffffff" d="M0 0L680.0 0L680.0 421.0L0 421.0L0 0Z" fill-rule="nonzero"/><path fill="#46bdc6" d="M340.0 59.083332C344.52316 59.083332 349.04453 59.263393 353.55338 59.62309L340.0 229.51666Z" fill-rule="nonzero"/><path fill="#ff0000" d="M353.55338 59.62309C360.09213 60.144726 366.59534 61.043415 373.03052 62.314674L340.0 229.51666Z" fill-rule="nonzero"/><path fill="#9900ff" d="M373.03052 62.314674C379.6877 63.629795 386.26044 65.34133 392.71356 67.44014L340.0 229.51666Z" fill-rule="nonzero"/><path fill="#ff00ff" d="M392.71356 67.44014C403.4745 70.94 413.86008 75.50285 423.71664 81.061134L340.0 229.51666Z" fill-rule="nonzero"/><path fill="#4285f4" d="M423.71664 81.061134C437.2497 88.692665 449.67572 98.13881 460.6494 109.13709L340.0 229.51666Z" fill-rule="nonzero"/><path fill="#ffffff" d="M460.6494 109.13709C472.4016 120.915634 482.36566 134.35162 490.22452 149.01747L340.0 229.51666Z" fill-rule="nonzero"/><path fill="#000000" d="M490.22452 149.01747C504.73056 176.0881 511.65216 206.57547 510.2575 237.25607L340.0 229.51666Z" fill-rule="nonzero"/><path fill="#8cfb9a" d="M510.2575 237.25607C508.44214 277.1922 492.64587 315.21933 465.631 344.6877L340.0 229.51666Z" fill-rule="nonzero"/><path fill="#f4cccc" d="M177.17728 279.87817C161.18222 228.16489 170.70378 171.92831 202.83076 128.36272C234.95773 84.79711 285.86957 59.083332 340.0 59.083332L340.0 229.51666Z" fill-rule="nonzero"/><path fill="#8e7cc3" d="M303.4664 395.98834C243.53981 382.83694 195.30644 338.4912 177.17728 279.87817L340.0 229.51666Z" fill-rule="nonzero"/><path fill="#ffe599" d="M465.631 344.6877C424.58124 389.46567 362.80096 409.0098 303.4664 395.98834L340.0 229.51666Z" fill-rule="nonzero"/><path fill="#1a1a1a" d="M21.971874 128.92041L21.971874 120.404785L23.70625 120.404785L23.70625 127.467285L28.01875 127.467285L28.01875 128.92041L21.971874 128.92041ZM31.175 128.92041L31.175 125.311035L28.034374 120.32666L30.065624 120.32666L32.08125 123.73291L34.065624 120.32666L36.065624 120.32666L32.909374 125.311035L32.909374 128.92041L31.175 128.92041ZM35.05 128.92041L37.9875 124.436035L35.33125 120.32666L37.346874 120.32666L39.08125 123.092285L40.76875 120.32666L42.76875 120.32666L40.096874 124.498535L43.034374 128.92041L40.940624 128.92041L39.034374 125.95166L37.128124 128.92041L35.05 128.92041ZM47.51875 126.936035L49.159374 127.217285Q48.846874 128.12354 48.159374 128.59229Q47.471874 129.06104 46.45625 129.06104Q44.83125 129.06104 44.05 127.998535Q43.425 127.154785 43.425 125.85791Q43.425 124.311035 44.2375 123.436035Q45.05 122.561035 46.284374 122.561035Q47.675 122.561035 48.471874 123.48291Q49.284374 124.38916 49.2375 126.279785L45.1125 126.279785Q45.14375 127.01416 45.51875 127.42041Q45.89375 127.82666 46.471874 127.82666Q46.846874 127.82666 47.1125 127.623535Q47.378124 127.404785 47.51875 126.936035ZM47.6125 125.279785Q47.596874 124.561035 47.2375 124.186035Q46.89375 123.811035 46.378124 123.811035Q45.846874 123.811035 45.4875 124.20166Q45.14375 124.60791 45.14375 125.279785L47.6125 125.279785Z" fill-rule="nonzero"/><path fill="#9e9e9e" d="M27.128124 144.38916L27.128124 145.92041L21.346874 145.92041Q21.440624 145.04541 21.909374 144.27979Q22.378124 143.49854 23.76875 142.21729Q24.878124 141.18604 25.128124 140.81104Q25.471874 140.29541 25.471874 139.79541Q25.471874 139.24854 25.175 138.95166Q24.878124 138.65479 24.3625 138.65479Q23.846874 138.65479 23.534374 138.96729Q23.2375 139.27979 23.190624 139.99854L21.55 139.84229Q21.690624 138.48291 22.45625 137.88916Q23.2375 137.29541 24.39375 137.29541Q25.675 137.29541 26.39375 137.98291Q27.128124 138.67041 27.128124 139.68604Q27.128124 140.26416 26.909374 140.79541Q26.70625 141.31104 26.253124 141.88916Q25.95625 142.26416 25.175 142.98291Q24.39375 143.70166 24.190624 143.93604Q23.9875 144.17041 23.846874 144.38916L27.128124 144.38916ZM28.596874 143.93604L30.190624 143.76416Q30.253124 144.24854 30.4875 144.48291Q30.7375 144.71729 31.14375 144.71729Q31.659374 144.71729 32.003124 144.24854Q32.3625 143.77979 32.471874 142.29541Q31.846874 143.01416 30.909374 143.01416Q29.909374 143.01416 29.159374 142.23291Q28.425 141.45166 28.425 140.20166Q28.425 138.88916 29.20625 138.09229Q29.9875 137.29541 31.190624 137.29541Q32.4875 137.29541 33.33125 138.31104Q34.175 139.31104 34.175 141.62354Q34.175 143.98291 33.3 145.02979Q32.425 146.07666 31.01875 146.07666Q30.01875 146.07666 29.39375 145.54541Q28.76875 144.99854 28.596874 143.93604ZM32.315624 140.34229Q32.315624 139.54541 31.95625 139.10791Q31.596874 138.65479 31.1125 138.65479Q30.659374 138.65479 30.346874 139.01416Q30.05 139.37354 30.05 140.20166Q30.05 141.02979 30.378124 141.42041Q30.70625 141.81104 31.190624 141.81104Q31.675 141.81104 31.9875 141.43604Q32.315624 141.06104 32.315624 140.34229ZM35.909374 145.92041L35.909374 144.27979L37.565624 144.27979L37.565624 145.92041L35.909374 145.92041ZM39.971874 141.27979Q39.33125 141.01416 39.034374 140.54541Q38.753124 140.07666 38.753124 139.51416Q38.753124 138.54541 39.425 137.92041Q40.096874 137.29541 41.33125 137.29541Q42.55 137.29541 43.221874 137.92041Q43.909374 138.54541 43.909374 139.51416Q43.909374 140.10791 43.596874 140.57666Q43.284374 141.04541 42.721874 141.27979Q43.440624 141.57666 43.815624 142.12354Q44.190624 142.67041 44.190624 143.38916Q44.190624 144.57666 43.425 145.32666Q42.675 146.07666 41.409374 146.07666Q40.2375 146.07666 39.45625 145.45166Q38.534374 144.73291 38.534374 143.46729Q38.534374 142.76416 38.878124 142.18604Q39.221874 141.60791 39.971874 141.27979ZM40.315624 139.62354Q40.315624 140.12354 40.58125 140.40479Q40.8625 140.67041 41.33125 140.67041Q41.8 140.67041 42.08125 140.38916Q42.3625 140.10791 42.3625 139.62354Q42.3625 139.15479 42.08125 138.88916Q41.8 138.60791 41.346874 138.60791Q40.878124 138.60791 40.596874 138.88916Q40.315624 139.17041 40.315624 139.62354ZM40.159374 143.31104Q40.159374 143.98291 40.503124 144.37354Q40.8625 144.74854 41.378124 144.74854Q41.89375 144.74854 42.221874 144.38916Q42.55 144.01416 42.55 143.32666Q42.55 142.71729 42.20625 142.35791Q41.878124 141.98291 41.3625 141.98291Q40.753124 141.98291 40.45625 142.40479Q40.159374 142.82666 40.159374 143.31104ZM45.565624 139.45166Q45.565624 138.29541 46.065624 137.74854Q46.58125 137.18604 47.45625 137.18604Q48.346874 137.18604 48.846874 137.74854Q49.3625 138.29541 49.3625 139.45166Q49.3625 140.60791 48.846874 141.17041Q48.346874 141.71729 47.4875 141.71729Q46.58125 141.71729 46.065624 141.17041Q45.565624 140.60791 45.565624 139.45166ZM46.8625 139.43604Q46.8625 140.27979 47.05 140.56104Q47.190624 140.77979 47.45625 140.77979Q47.721874 140.77979 47.8625 140.56104Q48.05 140.27979 48.05 139.43604Q48.05 138.60791 47.8625 138.32666Q47.721874 138.10791 47.45625 138.10791Q47.190624 138.10791 47.05 138.31104Q46.8625 138.60791 46.8625 139.43604ZM48.70625 146.24854L47.4875 146.24854L52.065624 137.18604L53.253124 137.18604L48.70625 146.24854ZM51.3625 143.99854Q51.3625 142.84229 51.8625 142.27979Q52.378124 141.71729 53.253124 141.71729Q54.14375 141.71729 54.64375 142.27979Q55.159374 142.84229 55.159374 143.99854Q55.159374 145.15479 54.64375 145.71729Q54.14375 146.26416 53.284374 146.26416Q52.378124 146.26416 51.8625 145.71729Q51.3625 145.15479 51.3625 143.99854ZM52.64375 143.98291Q52.64375 144.82666 52.846874 145.10791Q52.9875 145.32666 53.253124 145.32666Q53.51875 145.32666 53.659374 145.10791Q53.846874 144.82666 53.846874 143.98291Q53.846874 143.15479 53.659374 142.85791Q53.51875 142.65479 53.253124 142.65479Q52.9875 142.65479 52.846874 142.85791Q52.64375 143.15479 52.64375 143.98291Z" fill-rule="nonzero"/><path stroke="#757575" stroke-width="1.0" stroke-linecap="butt" d="M21.05 133.42041L163.56667 133.42041L209.68922 133.42041" fill-rule="nonzero"/><path fill="#9e9e9e" d="M211.68922 133.42041C211.68922 132.31584 210.7938 131.42041 209.68922 131.42041C208.58466 131.42041 207.68922 132.31584 207.68922 133.42041C207.68922 134.52498 208.58466 135.42041 209.68922 135.42041C210.7938 135.42041 211.68922 134.52498 211.68922 133.42041" fill-rule="nonzero"/><path fill="#1a1a1a" d="M21.925 344.20813L21.925 335.61438L28.3 335.61438L28.3 337.0675L23.659374 337.0675L23.659374 338.97375L27.971874 338.97375L27.971874 340.42688L23.659374 340.42688L23.659374 342.755L28.45625 342.755L28.45625 344.20813L21.925 344.20813ZM30.8625 344.20813L30.8625 337.0675L28.315624 337.0675L28.315624 335.61438L35.128124 335.61438L35.128124 337.0675L32.596874 337.0675L32.596874 344.20813L30.8625 344.20813ZM35.925 344.20813L35.925 335.61438L37.659374 335.61438L37.659374 339.005L41.065624 339.005L41.065624 335.61438L42.8 335.61438L42.8 344.20813L41.065624 344.20813L41.065624 340.45813L37.659374 340.45813L37.659374 344.20813L35.925 344.20813Z" fill-rule="nonzero"/><path fill="#9e9e9e" d="M25.76875 361.20813L24.128124 361.20813L24.128124 355.005Q23.221874 355.84875 22.003124 356.255L22.003124 354.755Q22.64375 354.55188 23.39375 353.95813Q24.159374 353.36438 24.440624 352.58313L25.76875 352.58313L25.76875 361.20813ZM34.14375 354.72375L32.55 354.89563Q32.4875 354.41125 32.2375 354.17688Q31.9875 353.9425 31.596874 353.9425Q31.08125 353.9425 30.721874 354.41125Q30.3625 354.88 30.26875 356.34875Q30.878124 355.63 31.8 355.63Q32.83125 355.63 33.565624 356.41125Q34.3 357.1925 34.3 358.4425Q34.3 359.755 33.51875 360.55188Q32.753124 361.34875 31.534374 361.34875Q30.2375 361.34875 29.39375 360.34875Q28.565624 359.33313 28.565624 357.03625Q28.565624 354.66125 29.425 353.63Q30.3 352.58313 31.70625 352.58313Q32.675 352.58313 33.315624 353.13Q33.95625 353.67688 34.14375 354.72375ZM30.409374 358.3175Q30.409374 359.11438 30.76875 359.55188Q31.14375 359.98938 31.6125 359.98938Q32.08125 359.98938 32.378124 359.63Q32.690624 359.27063 32.690624 358.45813Q32.690624 357.61438 32.3625 357.23938Q32.034374 356.84875 31.534374 356.84875Q31.065624 356.84875 30.7375 357.22375Q30.409374 357.58313 30.409374 358.3175ZM35.909374 361.20813L35.909374 359.5675L37.565624 359.5675L37.565624 361.20813L35.909374 361.20813ZM39.971874 356.5675Q39.33125 356.30188 39.034374 355.83313Q38.753124 355.36438 38.753124 354.80188Q38.753124 353.83313 39.425 353.20813Q40.096874 352.58313 41.33125 352.58313Q42.55 352.58313 43.221874 353.20813Q43.909374 353.83313 43.909374 354.80188Q43.909374 355.39563 43.596874 355.86438Q43.284374 356.33313 42.721874 356.5675Q43.440624 356.86438 43.815624 357.41125Q44.190624 357.95813 44.190624 358.67688Q44.190624 359.86438 43.425 360.61438Q42.675 361.36438 41.409374 361.36438Q40.2375 361.36438 39.45625 360.73938Q38.534374 360.02063 38.534374 358.755Q38.534374 358.05188 38.878124 357.47375Q39.221874 356.89563 39.971874 356.5675ZM40.315624 354.91125Q40.315624 355.41125 40.58125 355.6925Q40.8625 355.95813 41.33125 355.95813Q41.8 355.95813 42.08125 355.67688Q42.3625 355.39563 42.3625 354.91125Q42.3625 354.4425 42.08125 354.17688Q41.8 353.89563 41.346874 353.89563Q40.878124 353.89563 40.596874 354.17688Q40.315624 354.45813 40.315624 354.91125ZM40.159374 358.59875Q40.159374 359.27063 40.503124 359.66125Q40.8625 360.03625 41.378124 360.03625Q41.89375 360.03625 42.221874 359.67688Q42.55 359.30188 42.55 358.61438Q42.55 358.005 42.20625 357.64563Q41.878124 357.27063 41.3625 357.27063Q40.753124 357.27063 40.45625 357.6925Q40.159374 358.11438 40.159374 358.59875ZM45.565624 354.73938Q45.565624 353.58313 46.065624 353.03625Q46.58125 352.47375 47.45625 352.47375Q48.346874 352.47375 48.846874 353.03625Q49.3625 353.58313 49.3625 354.73938Q49.3625 355.89563 48.846874 356.45813Q48.346874 357.005 47.4875 357.005Q46.58125 357.005 46.065624 356.45813Q45.565624 355.89563 45.565624 354.73938ZM46.8625 354.72375Q46.8625 355.5675 47.05 355.84875Q47.190624 356.0675 47.45625 356.0675Q47.721874 356.0675 47.8625 355.84875Q48.05 355.5675 48.05 354.72375Q48.05 353.89563 47.8625 353.61438Q47.721874 353.39563 47.45625 353.39563Q47.190624 353.39563 47.05 353.59875Q46.8625 353.89563 46.8625 354.72375ZM48.70625 361.53625L47.4875 361.53625L52.065624 352.47375L53.253124 352.47375L48.70625 361.53625ZM51.3625 359.28625Q51.3625 358.13 51.8625 357.5675Q52.378124 357.005 53.253124 357.005Q54.14375 357.005 54.64375 357.5675Q55.159374 358.13 55.159374 359.28625Q55.159374 360.4425 54.64375 361.005Q54.14375 361.55188 53.284374 361.55188Q52.378124 361.55188 51.8625 361.005Q51.3625 360.4425 51.3625 359.28625ZM52.64375 359.27063Q52.64375 360.11438 52.846874 360.39563Q52.9875 360.61438 53.253124 360.61438Q53.51875 360.61438 53.659374 360.39563Q53.846874 360.11438 53.846874 359.27063Q53.846874 358.4425 53.659374 358.14563Q53.51875 357.9425 53.253124 357.9425Q52.9875 357.9425 52.846874 358.14563Q52.64375 358.4425 52.64375 359.27063Z" fill-rule="nonzero"/><path stroke="#757575" stroke-width="1.0" stroke-linecap="butt" d="M21.05 348.70813L163.56667 348.70813L230.4154 348.70813" fill-rule="nonzero"/><path fill="#9e9e9e" d="M232.4154 348.70813C232.4154 347.60358 231.51997 346.70813 230.4154 346.70813C229.31084 346.70813 228.4154 347.60358 228.4154 348.70813C228.4154 349.8127 229.31084 350.70813 230.4154 350.70813C231.51997 350.70813 232.4154 349.8127 232.4154 348.70813" fill-rule="nonzero"/><path fill="#1a1a1a" d="M623.79376 70.083336L623.79376 61.489586L626.40314 61.489586L627.95 67.34896L629.4969 61.489586L632.09064 61.489586L632.09064 70.083336L630.48126 70.083336L630.48126 63.31771L628.77814 70.083336L627.10626 70.083336L625.41876 63.31771L625.41876 70.083336L623.79376 70.083336ZM641.575 70.083336L639.6844 70.083336L638.9344 68.13021L635.4969 68.13021L634.79376 70.083336L632.95 70.083336L636.29376 61.489586L638.1375 61.489586L641.575 70.083336ZM638.3719 66.677086L637.2 63.489586L636.02814 66.677086L638.3719 66.677086ZM643.7625 70.083336L643.7625 62.94271L641.21564 62.94271L641.21564 61.489586L648.02814 61.489586L648.02814 62.94271L645.4969 62.94271L645.4969 70.083336L643.7625 70.083336ZM648.77814 70.083336L648.77814 61.489586L650.5125 61.489586L650.5125 70.083336L648.77814 70.083336ZM657.325 66.927086L658.9969 67.458336Q658.6219 68.864586 657.71564 69.552086Q656.8094 70.22396 655.4344 70.22396Q653.71564 70.22396 652.60626 69.06771Q651.5125 67.895836 651.5125 65.864586Q651.5125 63.72396 652.6219 62.53646Q653.73126 61.34896 655.54376 61.34896Q657.1219 61.34896 658.10626 62.270836Q658.6844 62.833336 658.98126 63.864586L657.2625 64.270836Q657.10626 63.59896 656.6219 63.22396Q656.1375 62.833336 655.45 62.833336Q654.4969 62.833336 653.90314 63.520836Q653.3094 64.19271 653.3094 65.739586Q653.3094 67.364586 653.8875 68.052086Q654.48126 68.739586 655.41876 68.739586Q656.10626 68.739586 656.60626 68.302086Q657.10626 67.864586 657.325 66.927086Z" fill-rule="nonzero"/><path fill="#9e9e9e" d="M637.66876 87.083336L636.02814 87.083336L636.02814 80.88021Q635.1219 81.72396 633.90314 82.13021L633.90314 80.63021Q634.54376 80.427086 635.29376 79.833336Q636.0594 79.239586 636.34064 78.458336L637.66876 78.458336L637.66876 87.083336ZM640.8094 87.083336L640.8094 85.44271L642.46564 85.44271L642.46564 87.083336L640.8094 87.083336ZM643.4969 85.09896L645.09064 84.927086Q645.15314 85.41146 645.3875 85.645836Q645.6375 85.88021 646.04376 85.88021Q646.5594 85.88021 646.90314 85.41146Q647.2625 84.94271 647.3719 83.458336Q646.7469 84.177086 645.8094 84.177086Q644.8094 84.177086 644.0594 83.395836Q643.325 82.614586 643.325 81.364586Q643.325 80.052086 644.10626 79.25521Q644.8875 78.458336 646.09064 78.458336Q647.3875 78.458336 648.23126 79.47396Q649.075 80.47396 649.075 82.78646Q649.075 85.145836 648.2 86.19271Q647.325 87.239586 645.91876 87.239586Q644.91876 87.239586 644.29376 86.708336Q643.66876 86.16146 643.4969 85.09896ZM647.21564 81.50521Q647.21564 80.708336 646.85626 80.270836Q646.4969 79.81771 646.0125 79.81771Q645.5594 79.81771 645.2469 80.177086Q644.95 80.53646 644.95 81.364586Q644.95 82.19271 645.27814 82.583336Q645.60626 82.97396 646.09064 82.97396Q646.575 82.97396 646.8875 82.59896Q647.21564 82.22396 647.21564 81.50521ZM650.46564 80.614586Q650.46564 79.458336 650.96564 78.91146Q651.48126 78.34896 652.35626 78.34896Q653.2469 78.34896 653.7469 78.91146Q654.2625 79.458336 654.2625 80.614586Q654.2625 81.770836 653.7469 82.333336Q653.2469 82.88021 652.3875 82.88021Q651.48126 82.88021 650.96564 82.333336Q650.46564 81.770836 650.46564 80.614586ZM651.7625 80.59896Q651.7625 81.44271 651.95 81.72396Q652.09064 81.94271 652.35626 81.94271Q652.6219 81.94271 652.7625 81.72396Q652.95 81.44271 652.95 80.59896Q652.95 79.770836 652.7625 79.489586Q652.6219 79.270836 652.35626 79.270836Q652.09064 79.270836 651.95 79.47396Q651.7625 79.770836 651.7625 80.59896ZM653.60626 87.41146L652.3875 87.41146L656.96564 78.34896L658.15314 78.34896L653.60626 87.41146ZM656.2625 85.16146Q656.2625 84.00521 656.7625 83.44271Q657.27814 82.88021 658.15314 82.88021Q659.04376 82.88021 659.54376 83.44271Q660.0594 84.00521 660.0594 85.16146Q660.0594 86.31771 659.54376 86.88021Q659.04376 87.427086 658.1844 87.427086Q657.27814 87.427086 656.7625 86.88021Q656.2625 86.31771 656.2625 85.16146ZM657.54376 85.145836Q657.54376 85.989586 657.7469 86.270836Q657.8875 86.489586 658.15314 86.489586Q658.41876 86.489586 658.5594 86.270836Q658.7469 85.989586 658.7469 85.145836Q658.7469 84.31771 658.5594 84.020836Q658.41876 83.81771 658.15314 83.81771Q657.8875 83.81771 657.7469 84.020836Q657.54376 84.31771 657.54376 85.145836Z" fill-rule="nonzero"/><path stroke="#757575" stroke-width="1.0" stroke-linecap="butt" d="M658.95 74.583336L516.43335 74.583336L380.80115 72.83018" fill-rule="nonzero"/><path fill="#9e9e9e" d="M382.80115 72.83018C382.80115 71.72561 381.9057 70.83018 380.80115 70.83018C379.69656 70.83018 378.80115 71.72561 378.80115 72.83018C378.80115 73.93475 379.69656 74.83018 380.80115 74.83018C381.9057 74.83018 382.80115 73.93475 382.80115 72.83018" fill-rule="nonzero"/><path fill="#1a1a1a" d="M635.84064 101.083336L635.84064 92.489586L637.575 92.489586L637.575 96.302086L641.09064 92.489586L643.41876 92.489586L640.1844 95.833336L643.59064 101.083336L641.35626 101.083336L638.98126 97.052086L637.575 98.489586L637.575 101.083336L635.84064 101.083336ZM643.825 92.489586L646.98126 92.489586Q648.0594 92.489586 648.6219 92.66146Q649.3719 92.88021 649.90314 93.458336Q650.45 94.020836 650.73126 94.84896Q651.0125 95.66146 651.0125 96.864586Q651.0125 97.927086 650.7625 98.69271Q650.4344 99.63021 649.84064 100.208336Q649.3875 100.66146 648.6219 100.895836Q648.04376 101.083336 647.075 101.083336L643.825 101.083336L643.825 92.489586ZM645.5594 93.94271L645.5594 99.63021L646.84064 99.63021Q647.575 99.63021 647.90314 99.552086Q648.325 99.44271 648.59064 99.19271Q648.8719 98.94271 649.04376 98.364586Q649.23126 97.78646 649.23126 96.78646Q649.23126 95.802086 649.04376 95.270836Q648.8719 94.72396 648.5594 94.427086Q648.2469 94.13021 647.7625 94.020836Q647.3875 93.94271 646.325 93.94271L645.5594 93.94271ZM659.575 101.083336L657.6844 101.083336L656.9344 99.13021L653.4969 99.13021L652.79376 101.083336L650.95 101.083336L654.29376 92.489586L656.1375 92.489586L659.575 101.083336ZM656.3719 97.677086L655.2 94.489586L654.02814 97.677086L656.3719 97.677086Z" fill-rule="nonzero"/><path fill="#9e9e9e" d="M633.40314 115.802086L634.9969 115.614586Q635.075 116.22396 635.40314 116.552086Q635.7469 116.864586 636.21564 116.864586Q636.73126 116.864586 637.075 116.47396Q637.41876 116.083336 637.41876 115.427086Q637.41876 114.81771 637.075 114.458336Q636.7469 114.083336 636.27814 114.083336Q635.95 114.083336 635.5125 114.208336L635.7 112.864586Q636.3719 112.88021 636.71564 112.583336Q637.075 112.270836 637.075 111.75521Q637.075 111.333336 636.8094 111.083336Q636.5594 110.81771 636.1219 110.81771Q635.7 110.81771 635.40314 111.114586Q635.10626 111.395836 635.04376 111.958336L633.52814 111.708336Q633.6844 110.927086 633.9969 110.458336Q634.325 109.989586 634.8875 109.72396Q635.46564 109.458336 636.16876 109.458336Q637.3875 109.458336 638.1219 110.22396Q638.71564 110.864586 638.71564 111.66146Q638.71564 112.78646 637.48126 113.458336Q638.23126 113.63021 638.66876 114.177086Q639.10626 114.72396 639.10626 115.50521Q639.10626 116.63021 638.27814 117.427086Q637.45 118.22396 636.23126 118.22396Q635.0594 118.22396 634.29376 117.552086Q633.52814 116.88021 633.40314 115.802086ZM640.8094 118.083336L640.8094 116.44271L642.46564 116.44271L642.46564 118.083336L640.8094 118.083336ZM649.02814 116.552086L649.02814 118.083336L643.2469 118.083336Q643.34064 117.208336 643.8094 116.44271Q644.27814 115.66146 645.66876 114.38021Q646.77814 113.34896 647.02814 112.97396Q647.3719 112.458336 647.3719 111.958336Q647.3719 111.41146 647.075 111.114586Q646.77814 110.81771 646.2625 110.81771Q645.7469 110.81771 645.4344 111.13021Q645.1375 111.44271 645.09064 112.16146L643.45 112.00521Q643.59064 110.645836 644.35626 110.052086Q645.1375 109.458336 646.29376 109.458336Q647.575 109.458336 648.29376 110.145836Q649.02814 110.833336 649.02814 111.84896Q649.02814 112.427086 648.8094 112.958336Q648.60626 113.47396 648.15314 114.052086Q647.85626 114.427086 647.075 115.145836Q646.29376 115.864586 646.09064 116.09896Q645.8875 116.333336 645.7469 116.552086L649.02814 116.552086ZM650.46564 111.614586Q650.46564 110.458336 650.96564 109.91146Q651.48126 109.34896 652.35626 109.34896Q653.2469 109.34896 653.7469 109.91146Q654.2625 110.458336 654.2625 111.614586Q654.2625 112.770836 653.7469 113.333336Q653.2469 113.88021 652.3875 113.88021Q651.48126 113.88021 650.96564 113.333336Q650.46564 112.770836 650.46564 111.614586ZM651.7625 111.59896Q651.7625 112.44271 651.95 112.72396Q652.09064 112.94271 652.35626 112.94271Q652.6219 112.94271 652.7625 112.72396Q652.95 112.44271 652.95 111.59896Q652.95 110.770836 652.7625 110.489586Q652.6219 110.270836 652.35626 110.270836Q652.09064 110.270836 651.95 110.47396Q651.7625 110.770836 651.7625 111.59896ZM653.60626 118.41146L652.3875 118.41146L656.96564 109.34896L658.15314 109.34896L653.60626 118.41146ZM656.2625 116.16146Q656.2625 115.00521 656.7625 114.44271Q657.27814 113.88021 658.15314 113.88021Q659.04376 113.88021 659.54376 114.44271Q660.0594 115.00521 660.0594 116.16146Q660.0594 117.31771 659.54376 117.88021Q659.04376 118.427086 658.1844 118.427086Q657.27814 118.427086 656.7625 117.88021Q656.2625 117.31771 656.2625 116.16146ZM657.54376 116.145836Q657.54376 116.989586 657.7469 117.270836Q657.8875 117.489586 658.15314 117.489586Q658.41876 117.489586 658.5594 117.270836Q658.7469 116.989586 658.7469 116.145836Q658.7469 115.31771 658.5594 115.020836Q658.41876 114.81771 658.15314 114.81771Q657.8875 114.81771 657.7469 115.020836Q657.54376 115.31771 657.54376 116.145836Z" fill-rule="nonzero"/><path stroke="#757575" stroke-width="1.0" stroke-linecap="butt" d="M658.95 105.583336L516.43335 105.583336L405.12653 81.280624" fill-rule="nonzero"/><path fill="#9e9e9e" d="M407.12653 81.280624C407.12653 80.176056 406.2311 79.280624 405.12653 79.280624C404.02197 79.280624 403.12653 80.176056 403.12653 81.280624C403.12653 82.3852 404.02197 83.280624 405.12653 83.280624C406.2311 83.280624 407.12653 82.3852 407.12653 81.280624" fill-rule="nonzero"/><path fill="#1a1a1a" d="M636.84064 132.08333L636.84064 123.48958L642.73126 123.48958L642.73126 124.9427L638.575 124.9427L638.575 126.97395L642.15314 126.97395L642.15314 128.42708L638.575 128.42708L638.575 132.08333L636.84064 132.08333ZM644.7625 132.08333L644.7625 124.9427L642.21564 124.9427L642.21564 123.48958L649.02814 123.48958L649.02814 124.9427L646.4969 124.9427L646.4969 132.08333L644.7625 132.08333ZM649.79376 132.08333L649.79376 123.48958L652.40314 123.48958L653.95 129.34895L655.4969 123.48958L658.09064 123.48958L658.09064 132.08333L656.48126 132.08333L656.48126 125.3177L654.77814 132.08333L653.10626 132.08333L651.41876 125.3177L651.41876 132.08333L649.79376 132.08333Z" fill-rule="nonzero"/><path fill="#9e9e9e" d="M636.6844 149.08333L636.6844 147.34895L633.16876 147.34895L633.16876 145.91145L636.90314 140.45833L638.27814 140.45833L638.27814 145.91145L639.35626 145.91145L639.35626 147.34895L638.27814 147.34895L638.27814 149.08333L636.6844 149.08333ZM636.6844 145.91145L636.6844 142.97395L634.71564 145.91145L636.6844 145.91145ZM640.8094 149.08333L640.8094 147.4427L642.46564 147.4427L642.46564 149.08333L640.8094 149.08333ZM643.40314 146.80208L644.9969 146.61458Q645.075 147.22395 645.40314 147.55208Q645.7469 147.86458 646.21564 147.86458Q646.73126 147.86458 647.075 147.47395Q647.41876 147.08333 647.41876 146.42708Q647.41876 145.8177 647.075 145.45833Q646.7469 145.08333 646.27814 145.08333Q645.95 145.08333 645.5125 145.20833L645.7 143.86458Q646.3719 143.8802 646.71564 143.58333Q647.075 143.27083 647.075 142.7552Q647.075 142.33333 646.8094 142.08333Q646.5594 141.8177 646.1219 141.8177Q645.7 141.8177 645.40314 142.11458Q645.10626 142.39583 645.04376 142.95833L643.52814 142.70833Q643.6844 141.92708 643.9969 141.45833Q644.325 140.98958 644.8875 140.72395Q645.46564 140.45833 646.16876 140.45833Q647.3875 140.45833 648.1219 141.22395Q648.71564 141.86458 648.71564 142.66145Q648.71564 143.78645 647.48126 144.45833Q648.23126 144.6302 648.66876 145.17708Q649.10626 145.72395 649.10626 146.5052Q649.10626 147.6302 648.27814 148.42708Q647.45 149.22395 646.23126 149.22395Q645.0594 149.22395 644.29376 148.55208Q643.52814 147.8802 643.40314 146.80208ZM650.46564 142.61458Q650.46564 141.45833 650.96564 140.91145Q651.48126 140.34895 652.35626 140.34895Q653.2469 140.34895 653.7469 140.91145Q654.2625 141.45833 654.2625 142.61458Q654.2625 143.77083 653.7469 144.33333Q653.2469 144.8802 652.3875 144.8802Q651.48126 144.8802 650.96564 144.33333Q650.46564 143.77083 650.46564 142.61458ZM651.7625 142.59895Q651.7625 143.4427 651.95 143.72395Q652.09064 143.9427 652.35626 143.9427Q652.6219 143.9427 652.7625 143.72395Q652.95 143.4427 652.95 142.59895Q652.95 141.77083 652.7625 141.48958Q652.6219 141.27083 652.35626 141.27083Q652.09064 141.27083 651.95 141.47395Q651.7625 141.77083 651.7625 142.59895ZM653.60626 149.41145L652.3875 149.41145L656.96564 140.34895L658.15314 140.34895L653.60626 149.41145ZM656.2625 147.16145Q656.2625 146.0052 656.7625 145.4427Q657.27814 144.8802 658.15314 144.8802Q659.04376 144.8802 659.54376 145.4427Q660.0594 146.0052 660.0594 147.16145Q660.0594 148.3177 659.54376 148.8802Q659.04376 149.42708 658.1844 149.42708Q657.27814 149.42708 656.7625 148.8802Q656.2625 148.3177 656.2625 147.16145ZM657.54376 147.14583Q657.54376 147.98958 657.7469 148.27083Q657.8875 148.48958 658.15314 148.48958Q658.41876 148.48958 658.5594 148.27083Q658.7469 147.98958 658.7469 147.14583Q658.7469 146.3177 658.5594 146.02083Q658.41876 145.8177 658.15314 145.8177Q657.8875 145.8177 657.7469 146.02083Q657.54376 146.3177 657.54376 147.14583Z" fill-rule="nonzero"/><path stroke="#757575" stroke-width="1.0" stroke-linecap="butt" d="M658.95 136.58333L516.43335 136.58333L437.98566 100.62058" fill-rule="nonzero"/><path fill="#9e9e9e" d="M439.98566 100.62058C439.98566 99.516014 439.0902 98.62058 437.98566 98.62058C436.88107 98.62058 435.98566 99.516014 435.98566 100.62058C435.98566 101.72515 436.88107 102.62058 437.98566 102.62058C439.0902 102.62058 439.98566 101.72515 439.98566 100.62058" fill-rule="nonzero"/><path fill="#1a1a1a" d="M633.95 163.08333L636.8875 158.59895L634.23126 154.48958L636.2469 154.48958L637.98126 157.2552L639.66876 154.48958L641.66876 154.48958L638.9969 158.66145L641.9344 163.08333L639.84064 163.08333L637.9344 160.11458L636.02814 163.08333L633.95 163.08333ZM642.8719 163.08333L642.8719 154.5677L644.60626 154.5677L644.60626 161.6302L648.91876 161.6302L648.91876 163.08333L642.8719 163.08333ZM649.79376 163.08333L649.79376 154.48958L652.40314 154.48958L653.95 160.34895L655.4969 154.48958L658.09064 154.48958L658.09064 163.08333L656.48126 163.08333L656.48126 156.3177L654.77814 163.08333L653.10626 163.08333L651.41876 156.3177L651.41876 163.08333L649.79376 163.08333Z" fill-rule="nonzero"/><path fill="#9e9e9e" d="M636.6844 180.08333L636.6844 178.34895L633.16876 178.34895L633.16876 176.91145L636.90314 171.45833L638.27814 171.45833L638.27814 176.91145L639.35626 176.91145L639.35626 178.34895L638.27814 178.34895L638.27814 180.08333L636.6844 180.08333ZM636.6844 176.91145L636.6844 173.97395L634.71564 176.91145L636.6844 176.91145ZM640.8094 180.08333L640.8094 178.4427L642.46564 178.4427L642.46564 180.08333L640.8094 180.08333ZM643.46564 173.14583L643.46564 171.61458L649.09064 171.61458L649.09064 172.80208Q648.3875 173.48958 647.66876 174.77083Q646.95 176.05208 646.575 177.5052Q646.2 178.9427 646.2 180.08333L644.6219 180.08333Q644.65314 178.30208 645.34064 176.45833Q646.04376 174.59895 647.2 173.14583L643.46564 173.14583ZM650.46564 173.61458Q650.46564 172.45833 650.96564 171.91145Q651.48126 171.34895 652.35626 171.34895Q653.2469 171.34895 653.7469 171.91145Q654.2625 172.45833 654.2625 173.61458Q654.2625 174.77083 653.7469 175.33333Q653.2469 175.8802 652.3875 175.8802Q651.48126 175.8802 650.96564 175.33333Q650.46564 174.77083 650.46564 173.61458ZM651.7625 173.59895Q651.7625 174.4427 651.95 174.72395Q652.09064 174.9427 652.35626 174.9427Q652.6219 174.9427 652.7625 174.72395Q652.95 174.4427 652.95 173.59895Q652.95 172.77083 652.7625 172.48958Q652.6219 172.27083 652.35626 172.27083Q652.09064 172.27083 651.95 172.47395Q651.7625 172.77083 651.7625 173.59895ZM653.60626 180.41145L652.3875 180.41145L656.96564 171.34895L658.15314 171.34895L653.60626 180.41145ZM656.2625 178.16145Q656.2625 177.0052 656.7625 176.4427Q657.27814 175.8802 658.15314 175.8802Q659.04376 175.8802 659.54376 176.4427Q660.0594 177.0052 660.0594 178.16145Q660.0594 179.3177 659.54376 179.8802Q659.04376 180.42708 658.1844 180.42708Q657.27814 180.42708 656.7625 179.8802Q656.2625 179.3177 656.2625 178.16145ZM657.54376 178.14583Q657.54376 178.98958 657.7469 179.27083Q657.8875 179.48958 658.15314 179.48958Q658.41876 179.48958 658.5594 179.27083Q658.7469 178.98958 658.7469 178.14583Q658.7469 177.3177 658.5594 177.02083Q658.41876 176.8177 658.15314 176.8177Q657.8875 176.8177 657.7469 177.02083Q657.54376 177.3177 657.54376 178.14583Z" fill-rule="nonzero"/><path stroke="#757575" stroke-width="1.0" stroke-linecap="butt" d="M658.95 167.58333L516.43335 167.58333L470.05212 133.07065" fill-rule="nonzero"/><path fill="#9e9e9e" d="M472.05212 133.07065C472.05212 131.96608 471.15668 131.07065 470.05212 131.07065C468.94754 131.07065 468.05212 131.96608 468.05212 133.07065C468.05212 134.17522 468.94754 135.07065 470.05212 135.07065C471.15668 135.07065 472.05212 134.17522 472.05212 133.07065" fill-rule="nonzero"/><path fill="#1a1a1a" d="M634.95 194.08333L637.8875 189.59895L635.23126 185.48958L637.2469 185.48958L638.98126 188.2552L640.66876 185.48958L642.66876 185.48958L639.9969 189.66145L642.9344 194.08333L640.84064 194.08333L638.9344 191.11458L637.02814 194.08333L634.95 194.08333ZM643.825 194.08333L643.825 185.48958L647.48126 185.48958Q648.85626 185.48958 649.48126 185.72395Q650.10626 185.95833 650.48126 186.55208Q650.85626 187.14583 650.85626 187.89583Q650.85626 188.86458 650.27814 189.5052Q649.71564 190.1302 648.59064 190.28645Q649.15314 190.61458 649.5125 191.02083Q649.8875 191.41145 650.4969 192.41145L651.5594 194.08333L649.48126 194.08333L648.23126 192.20833Q647.5594 191.20833 647.3094 190.95833Q647.0594 190.6927 646.77814 190.59895Q646.5125 190.48958 645.91876 190.48958L645.5594 190.48958L645.5594 194.08333L643.825 194.08333ZM645.5594 189.1302L646.84064 189.1302Q648.09064 189.1302 648.40314 189.02083Q648.71564 188.91145 648.8875 188.66145Q649.075 188.39583 649.075 188.0052Q649.075 187.58333 648.84064 187.3177Q648.60626 187.05208 648.1844 186.97395Q647.96564 186.9427 646.91876 186.9427L645.5594 186.9427L645.5594 189.1302ZM651.825 194.08333L651.825 185.48958L654.60626 185.48958Q656.1844 185.48958 656.66876 185.61458Q657.40314 185.8177 657.90314 186.47395Q658.40314 187.11458 658.40314 188.1302Q658.40314 188.92708 658.10626 189.47395Q657.825 190.0052 657.3875 190.3177Q656.95 190.61458 656.48126 190.72395Q655.8719 190.84895 654.6844 190.84895L653.5594 190.84895L653.5594 194.08333L651.825 194.08333ZM653.5594 186.9427L653.5594 189.3802L654.5125 189.3802Q655.52814 189.3802 655.8719 189.2552Q656.23126 189.11458 656.41876 188.83333Q656.6219 188.53645 656.6219 188.16145Q656.6219 187.6927 656.34064 187.39583Q656.0594 187.08333 655.6375 187.0052Q655.34064 186.9427 654.40314 186.9427L653.5594 186.9427Z" fill-rule="nonzero"/><path fill="#9e9e9e" d="M634.8719 206.4427Q634.23126 206.17708 633.9344 205.70833Q633.65314 205.23958 633.65314 204.67708Q633.65314 203.70833 634.325 203.08333Q634.9969 202.45833 636.23126 202.45833Q637.45 202.45833 638.1219 203.08333Q638.8094 203.70833 638.8094 204.67708Q638.8094 205.27083 638.4969 205.73958Q638.1844 206.20833 637.6219 206.4427Q638.34064 206.73958 638.71564 207.28645Q639.09064 207.83333 639.09064 208.55208Q639.09064 209.73958 638.325 210.48958Q637.575 211.23958 636.3094 211.23958Q635.1375 211.23958 634.35626 210.61458Q633.4344 209.89583 633.4344 208.6302Q633.4344 207.92708 633.77814 207.34895Q634.1219 206.77083 634.8719 206.4427ZM635.21564 204.78645Q635.21564 205.28645 635.48126 205.5677Q635.7625 205.83333 636.23126 205.83333Q636.7 205.83333 636.98126 205.55208Q637.2625 205.27083 637.2625 204.78645Q637.2625 204.3177 636.98126 204.05208Q636.7 203.77083 636.2469 203.77083Q635.77814 203.77083 635.4969 204.05208Q635.21564 204.33333 635.21564 204.78645ZM635.0594 208.47395Q635.0594 209.14583 635.40314 209.53645Q635.7625 209.91145 636.27814 209.91145Q636.79376 209.91145 637.1219 209.55208Q637.45 209.17708 637.45 208.48958Q637.45 207.8802 637.10626 207.52083Q636.77814 207.14583 636.2625 207.14583Q635.65314 207.14583 635.35626 207.5677Q635.0594 207.98958 635.0594 208.47395ZM640.8094 211.08333L640.8094 209.4427L642.46564 209.4427L642.46564 211.08333L640.8094 211.08333ZM649.04376 204.59895L647.45 204.77083Q647.3875 204.28645 647.1375 204.05208Q646.8875 203.8177 646.4969 203.8177Q645.98126 203.8177 645.6219 204.28645Q645.2625 204.7552 645.16876 206.22395Q645.77814 205.5052 646.7 205.5052Q647.73126 205.5052 648.46564 206.28645Q649.2 207.0677 649.2 208.3177Q649.2 209.6302 648.41876 210.42708Q647.65314 211.22395 646.4344 211.22395Q645.1375 211.22395 644.29376 210.22395Q643.46564 209.20833 643.46564 206.91145Q643.46564 204.53645 644.325 203.5052Q645.2 202.45833 646.60626 202.45833Q647.575 202.45833 648.21564 203.0052Q648.85626 203.55208 649.04376 204.59895ZM645.3094 208.1927Q645.3094 208.98958 645.66876 209.42708Q646.04376 209.86458 646.5125 209.86458Q646.98126 209.86458 647.27814 209.5052Q647.59064 209.14583 647.59064 208.33333Q647.59064 207.48958 647.2625 207.11458Q646.9344 206.72395 646.4344 206.72395Q645.96564 206.72395 645.6375 207.09895Q645.3094 207.45833 645.3094 208.1927ZM650.46564 204.61458Q650.46564 203.45833 650.96564 202.91145Q651.48126 202.34895 652.35626 202.34895Q653.2469 202.34895 653.7469 202.91145Q654.2625 203.45833 654.2625 204.61458Q654.2625 205.77083 653.7469 206.33333Q653.2469 206.8802 652.3875 206.8802Q651.48126 206.8802 650.96564 206.33333Q650.46564 205.77083 650.46564 204.61458ZM651.7625 204.59895Q651.7625 205.4427 651.95 205.72395Q652.09064 205.9427 652.35626 205.9427Q652.6219 205.9427 652.7625 205.72395Q652.95 205.4427 652.95 204.59895Q652.95 203.77083 652.7625 203.48958Q652.6219 203.27083 652.35626 203.27083Q652.09064 203.27083 651.95 203.47395Q651.7625 203.77083 651.7625 204.59895ZM653.60626 211.41145L652.3875 211.41145L656.96564 202.34895L658.15314 202.34895L653.60626 211.41145ZM656.2625 209.16145Q656.2625 208.0052 656.7625 207.4427Q657.27814 206.8802 658.15314 206.8802Q659.04376 206.8802 659.54376 207.4427Q660.0594 208.0052 660.0594 209.16145Q660.0594 210.3177 659.54376 210.8802Q659.04376 211.42708 658.1844 211.42708Q657.27814 211.42708 656.7625 210.8802Q656.2625 210.3177 656.2625 209.16145ZM657.54376 209.14583Q657.54376 209.98958 657.7469 210.27083Q657.8875 210.48958 658.15314 210.48958Q658.41876 210.48958 658.5594 210.27083Q658.7469 209.98958 658.7469 209.14583Q658.7469 208.3177 658.5594 208.02083Q658.41876 207.8177 658.15314 207.8177Q657.8875 207.8177 657.7469 208.02083Q657.54376 208.3177 657.54376 209.14583Z" fill-rule="nonzero"/><path stroke="#757575" stroke-width="1.0" stroke-linecap="butt" d="M658.95 198.58333L516.43335 198.58333L497.8936 193.66971" fill-rule="nonzero"/><path fill="#9e9e9e" d="M499.8936 193.66971C499.8936 192.56514 498.99814 191.66971 497.8936 191.66971C496.789 191.66971 495.8936 192.56514 495.8936 193.66971C495.8936 194.77429 496.789 195.66971 497.8936 195.66971C498.99814 195.66971 499.8936 194.77429 499.8936 193.66971" fill-rule="nonzero"/><path fill="#1a1a1a" d="M635.3875 284.3314L637.075 284.17514Q637.23126 285.0189 637.6844 285.42514Q638.15314 285.81577 638.95 285.81577Q639.77814 285.81577 640.2 285.47202Q640.6375 285.11264 640.6375 284.62827Q640.6375 284.3314 640.45 284.11264Q640.27814 283.8939 639.825 283.73764Q639.52814 283.62827 638.45 283.36264Q637.04376 283.0189 636.48126 282.5189Q635.7 281.80014 635.7 280.78452Q635.7 280.12827 636.0594 279.56577Q636.4344 278.98764 637.1375 278.69077Q637.84064 278.3939 638.825 278.3939Q640.45 278.3939 641.2625 279.11264Q642.075 279.81577 642.1219 280.98764L640.3875 281.06577Q640.27814 280.40952 639.90314 280.12827Q639.54376 279.8314 638.8094 279.8314Q638.0594 279.8314 637.6219 280.1439Q637.35626 280.3314 637.35626 280.67514Q637.35626 280.97202 637.60626 281.19077Q637.9344 281.47202 639.2 281.7689Q640.46564 282.06577 641.075 282.3939Q641.6844 282.7064 642.02814 283.2689Q642.3719 283.81577 642.3719 284.62827Q642.3719 285.36264 641.95 286.0189Q641.54376 286.65952 640.79376 286.97202Q640.04376 287.28452 638.9344 287.28452Q637.29376 287.28452 636.41876 286.53452Q635.5594 285.7689 635.3875 284.3314ZM643.46564 282.87827Q643.46564 281.56577 643.8719 280.67514Q644.15314 280.0189 644.65314 279.50327Q645.16876 278.98764 645.77814 278.73764Q646.575 278.3939 647.6219 278.3939Q649.52814 278.3939 650.66876 279.5814Q651.8094 280.75327 651.8094 282.84702Q651.8094 284.92514 650.66876 286.09702Q649.54376 287.2689 647.65314 287.2689Q645.73126 287.2689 644.59064 286.11264Q643.46564 284.94077 643.46564 282.87827ZM645.2625 282.8314Q645.2625 284.28452 645.9344 285.03452Q646.60626 285.78452 647.6375 285.78452Q648.6844 285.78452 649.34064 285.05014Q650.0125 284.30014 650.0125 282.80014Q650.0125 281.3314 649.35626 280.61264Q648.71564 279.87827 647.6375 279.87827Q646.575 279.87827 645.91876 280.61264Q645.2625 281.34702 645.2625 282.8314ZM652.8719 287.12827L652.8719 278.61264L654.60626 278.61264L654.60626 285.67514L658.91876 285.67514L658.91876 287.12827L652.8719 287.12827Z" fill-rule="nonzero"/><path fill="#9e9e9e" d="M630.66876 304.12827L629.02814 304.12827L629.02814 297.92514Q628.1219 298.7689 626.90314 299.17514L626.90314 297.67514Q627.54376 297.47202 628.29376 296.87827Q629.0594 296.28452 629.34064 295.50327L630.66876 295.50327L630.66876 304.12827ZM637.66876 304.12827L636.02814 304.12827L636.02814 297.92514Q635.1219 298.7689 633.90314 299.17514L633.90314 297.67514Q634.54376 297.47202 635.29376 296.87827Q636.0594 296.28452 636.34064 295.50327L637.66876 295.50327L637.66876 304.12827ZM640.8094 304.12827L640.8094 302.48764L642.46564 302.48764L642.46564 304.12827L640.8094 304.12827ZM647.66876 304.12827L646.02814 304.12827L646.02814 297.92514Q645.1219 298.7689 643.90314 299.17514L643.90314 297.67514Q644.54376 297.47202 645.29376 296.87827Q646.0594 296.28452 646.34064 295.50327L647.66876 295.50327L647.66876 304.12827ZM650.46564 297.65952Q650.46564 296.50327 650.96564 295.9564Q651.48126 295.3939 652.35626 295.3939Q653.2469 295.3939 653.7469 295.9564Q654.2625 296.50327 654.2625 297.65952Q654.2625 298.81577 653.7469 299.37827Q653.2469 299.92514 652.3875 299.92514Q651.48126 299.92514 650.96564 299.37827Q650.46564 298.81577 650.46564 297.65952ZM651.7625 297.6439Q651.7625 298.48764 651.95 298.7689Q652.09064 298.98764 652.35626 298.98764Q652.6219 298.98764 652.7625 298.7689Q652.95 298.48764 652.95 297.6439Q652.95 296.81577 652.7625 296.53452Q652.6219 296.31577 652.35626 296.31577Q652.09064 296.31577 651.95 296.5189Q651.7625 296.81577 651.7625 297.6439ZM653.60626 304.4564L652.3875 304.4564L656.96564 295.3939L658.15314 295.3939L653.60626 304.4564ZM656.2625 302.2064Q656.2625 301.05014 656.7625 300.48764Q657.27814 299.92514 658.15314 299.92514Q659.04376 299.92514 659.54376 300.48764Q660.0594 301.05014 660.0594 302.2064Q660.0594 303.36264 659.54376 303.92514Q659.04376 304.47202 658.1844 304.47202Q657.27814 304.47202 656.7625 303.92514Q656.2625 303.36264 656.2625 302.2064ZM657.54376 302.19077Q657.54376 303.03452 657.7469 303.31577Q657.8875 303.53452 658.15314 303.53452Q658.41876 303.53452 658.5594 303.31577Q658.7469 303.03452 658.7469 302.19077Q658.7469 301.36264 658.5594 301.06577Q658.41876 300.86264 658.15314 300.86264Q657.8875 300.86264 657.7469 301.06577Q657.54376 301.36264 657.54376 302.19077Z" fill-rule="nonzero"/><path stroke="#757575" stroke-width="1.0" stroke-linecap="butt" d="M658.95 291.62827L516.43335 291.62827L489.52438 291.62827" fill-rule="nonzero"/><path fill="#9e9e9e" d="M491.52438 291.62827C491.52438 290.52368 490.62894 289.62827 489.52438 289.62827C488.4198 289.62827 487.52438 290.52368 487.52438 291.62827C487.52438 292.73282 488.4198 293.62827 489.52438 293.62827C490.62894 293.62827 491.52438 292.73282 491.52438 291.62827" fill-rule="nonzero"/><path fill="#1a1a1a" d="M629.825 379.388L629.825 370.79425L636.2 370.79425L636.2 372.24738L631.5594 372.24738L631.5594 374.15363L635.8719 374.15363L635.8719 375.60675L631.5594 375.60675L631.5594 377.93488L636.35626 377.93488L636.35626 379.388L629.825 379.388ZM640.825 376.23175L640.825 374.77863L644.5594 374.77863L644.5594 378.2005Q644.0125 378.73175 642.98126 379.138Q641.95 379.52863 640.8875 379.52863Q639.54376 379.52863 638.52814 378.96613Q637.52814 378.40363 637.02814 377.35675Q636.52814 376.29425 636.52814 375.05988Q636.52814 373.71613 637.09064 372.68488Q637.65314 371.638 638.73126 371.0755Q639.5594 370.65363 640.79376 370.65363Q642.3875 370.65363 643.27814 371.3255Q644.1844 371.99738 644.45 373.16925L642.73126 373.49738Q642.54376 372.87238 642.04376 372.513Q641.54376 372.138 640.79376 372.138Q639.65314 372.138 638.98126 372.85675Q638.3094 373.5755 638.3094 374.99738Q638.3094 376.52863 638.98126 377.29425Q639.66876 378.04425 640.77814 378.04425Q641.325 378.04425 641.8719 377.84113Q642.41876 377.62238 642.8094 377.3255L642.8094 376.23175L640.825 376.23175ZM644.8719 379.388L644.8719 370.87238L646.60626 370.87238L646.60626 377.93488L650.91876 377.93488L650.91876 379.388L644.8719 379.388ZM651.825 370.79425L654.98126 370.79425Q656.0594 370.79425 656.6219 370.96613Q657.3719 371.18488 657.90314 371.763Q658.45 372.3255 658.73126 373.15363Q659.0125 373.96613 659.0125 375.16925Q659.0125 376.23175 658.7625 376.99738Q658.4344 377.93488 657.84064 378.513Q657.3875 378.96613 656.6219 379.2005Q656.04376 379.388 655.075 379.388L651.825 379.388L651.825 370.79425ZM653.5594 372.24738L653.5594 377.93488L654.84064 377.93488Q655.575 377.93488 655.90314 377.85675Q656.325 377.74738 656.59064 377.49738Q656.8719 377.24738 657.04376 376.66925Q657.23126 376.09113 657.23126 375.09113Q657.23126 374.10675 657.04376 373.5755Q656.8719 373.02863 656.5594 372.73175Q656.2469 372.43488 655.7625 372.3255Q655.3875 372.24738 654.325 372.24738L653.5594 372.24738Z" fill-rule="nonzero"/><path fill="#9e9e9e" d="M630.66876 396.388L629.02814 396.388L629.02814 390.18488Q628.1219 391.02863 626.90314 391.43488L626.90314 389.93488Q627.54376 389.73175 628.29376 389.138Q629.0594 388.54425 629.34064 387.763L630.66876 387.763L630.66876 396.388ZM639.04376 389.90363L637.45 390.0755Q637.3875 389.59113 637.1375 389.35675Q636.8875 389.12238 636.4969 389.12238Q635.98126 389.12238 635.6219 389.59113Q635.2625 390.05988 635.16876 391.52863Q635.77814 390.80988 636.7 390.80988Q637.73126 390.80988 638.46564 391.59113Q639.2 392.37238 639.2 393.62238Q639.2 394.93488 638.41876 395.73175Q637.65314 396.52863 636.4344 396.52863Q635.1375 396.52863 634.29376 395.52863Q633.46564 394.513 633.46564 392.21613Q633.46564 389.84113 634.325 388.80988Q635.2 387.763 636.60626 387.763Q637.575 387.763 638.21564 388.30988Q638.85626 388.85675 639.04376 389.90363ZM635.3094 393.49738Q635.3094 394.29425 635.66876 394.73175Q636.04376 395.16925 636.5125 395.16925Q636.98126 395.16925 637.27814 394.80988Q637.59064 394.4505 637.59064 393.638Q637.59064 392.79425 637.2625 392.41925Q636.9344 392.02863 636.4344 392.02863Q635.96564 392.02863 635.6375 392.40363Q635.3094 392.763 635.3094 393.49738ZM640.8094 396.388L640.8094 394.74738L642.46564 394.74738L642.46564 396.388L640.8094 396.388ZM649.04376 389.90363L647.45 390.0755Q647.3875 389.59113 647.1375 389.35675Q646.8875 389.12238 646.4969 389.12238Q645.98126 389.12238 645.6219 389.59113Q645.2625 390.05988 645.16876 391.52863Q645.77814 390.80988 646.7 390.80988Q647.73126 390.80988 648.46564 391.59113Q649.2 392.37238 649.2 393.62238Q649.2 394.93488 648.41876 395.73175Q647.65314 396.52863 646.4344 396.52863Q645.1375 396.52863 644.29376 395.52863Q643.46564 394.513 643.46564 392.21613Q643.46564 389.84113 644.325 388.80988Q645.2 387.763 646.60626 387.763Q647.575 387.763 648.21564 388.30988Q648.85626 388.85675 649.04376 389.90363ZM645.3094 393.49738Q645.3094 394.29425 645.66876 394.73175Q646.04376 395.16925 646.5125 395.16925Q646.98126 395.16925 647.27814 394.80988Q647.59064 394.4505 647.59064 393.638Q647.59064 392.79425 647.2625 392.41925Q646.9344 392.02863 646.4344 392.02863Q645.96564 392.02863 645.6375 392.40363Q645.3094 392.763 645.3094 393.49738ZM650.46564 389.91925Q650.46564 388.763 650.96564 388.21613Q651.48126 387.65363 652.35626 387.65363Q653.2469 387.65363 653.7469 388.21613Q654.2625 388.763 654.2625 389.91925Q654.2625 391.0755 653.7469 391.638Q653.2469 392.18488 652.3875 392.18488Q651.48126 392.18488 650.96564 391.638Q650.46564 391.0755 650.46564 389.91925ZM651.7625 389.90363Q651.7625 390.74738 651.95 391.02863Q652.09064 391.24738 652.35626 391.24738Q652.6219 391.24738 652.7625 391.02863Q652.95 390.74738 652.95 389.90363Q652.95 389.0755 652.7625 388.79425Q652.6219 388.5755 652.35626 388.5755Q652.09064 388.5755 651.95 388.77863Q651.7625 389.0755 651.7625 389.90363ZM653.60626 396.71613L652.3875 396.71613L656.96564 387.65363L658.15314 387.65363L653.60626 396.71613ZM656.2625 394.46613Q656.2625 393.30988 656.7625 392.74738Q657.27814 392.18488 658.15314 392.18488Q659.04376 392.18488 659.54376 392.74738Q660.0594 393.30988 660.0594 394.46613Q660.0594 395.62238 659.54376 396.18488Q659.04376 396.73175 658.1844 396.73175Q657.27814 396.73175 656.7625 396.18488Q656.2625 395.62238 656.2625 394.46613ZM657.54376 394.4505Q657.54376 395.29425 657.7469 395.5755Q657.8875 395.79425 658.15314 395.79425Q658.41876 395.79425 658.5594 395.5755Q658.7469 395.29425 658.7469 394.4505Q658.7469 393.62238 658.5594 393.3255Q658.41876 393.12238 658.15314 393.12238Q657.8875 393.12238 657.7469 393.3255Q657.54376 393.62238 657.54376 394.4505Z" fill-rule="nonzero"/><path stroke="#757575" stroke-width="1.0" stroke-linecap="butt" d="M658.95 383.888L516.43335 383.888L388.83524 383.888" fill-rule="nonzero"/><path fill="#9e9e9e" d="M390.83524 383.888C390.83524 382.78342 389.9398 381.888 388.83524 381.888C387.73065 381.888 386.83524 382.78342 386.83524 383.888C386.83524 384.99258 387.73065 385.888 388.83524 385.888C389.9398 385.888 390.83524 384.99258 390.83524 383.888" fill-rule="nonzero"/><path fill="#757575" d="M22.534374 40.05L22.534374 25.7375L25.39375 25.7375L28.76875 35.8625Q29.2375 37.284374 29.45625 37.9875Q29.70625 37.20625 30.221874 35.690624L33.64375 25.7375L36.190624 25.7375L36.190624 40.05L34.378124 40.05L34.378124 28.065624L30.20625 40.05L28.503124 40.05L24.3625 27.8625L24.3625 40.05L22.534374 40.05ZM39.284374 44.05L39.096874 42.39375Q39.675 42.55 40.096874 42.55Q40.690624 42.55 41.034374 42.346874Q41.39375 42.159374 41.6125 41.815624Q41.784374 41.55 42.159374 40.503124Q42.20625 40.346874 42.315624 40.065624L38.378124 29.675L40.26875 29.675L42.425 35.690624Q42.846874 36.83125 43.175 38.08125Q43.4875 36.878124 43.89375 35.721874L46.1125 29.675L47.878124 29.675L43.925 40.221874Q43.3 41.940624 42.940624 42.58125Q42.471874 43.45625 41.8625 43.846874Q41.26875 44.253124 40.425 44.253124Q39.909374 44.253124 39.284374 44.05ZM62.14375 36.253124L63.8625 36.471874Q63.58125 38.26875 62.409374 39.284374Q61.253124 40.284374 59.55 40.284374Q57.425 40.284374 56.128124 38.89375Q54.83125 37.503124 54.83125 34.909374Q54.83125 33.221874 55.378124 31.971874Q55.940624 30.70625 57.08125 30.08125Q58.221874 29.440624 59.565624 29.440624Q61.253124 29.440624 62.315624 30.3Q63.39375 31.159374 63.70625 32.721874L61.9875 32.9875Q61.753124 31.940624 61.128124 31.425Q60.503124 30.89375 59.628124 30.89375Q58.3 30.89375 57.471874 31.846874Q56.64375 32.8 56.64375 34.846874Q56.64375 36.940624 57.440624 37.89375Q58.2375 38.83125 59.534374 38.83125Q60.565624 38.83125 61.253124 38.20625Q61.95625 37.565624 62.14375 36.253124ZM65.34688 40.05L65.34688 29.675L66.925 29.675L66.925 31.253124Q67.53438 30.14375 68.05 29.8Q68.56563 29.440624 69.175 29.440624Q70.06563 29.440624 70.9875 30.003124L70.37813 31.64375Q69.7375 31.253124 69.09688 31.253124Q68.51875 31.253124 68.05 31.6125Q67.59688 31.95625 67.39375 32.565624Q67.1125 33.503124 67.1125 34.6125L67.1125 40.05L65.34688 40.05ZM72.28438 44.05L72.09688 42.39375Q72.675 42.55 73.09688 42.55Q73.69063 42.55 74.03438 42.346874Q74.39375 42.159374 74.6125 41.815624Q74.78438 41.55 75.15938 40.503124Q75.20625 40.346874 75.31563 40.065624L71.37813 29.675L73.26875 29.675L75.425 35.690624Q75.84688 36.83125 76.175 38.08125Q76.4875 36.878124 76.89375 35.721874L79.1125 29.675L80.87813 29.675L76.925 40.221874Q76.3 41.940624 75.94063 42.58125Q75.47188 43.45625 74.8625 43.846874Q74.26875 44.253124 73.425 44.253124Q72.90938 44.253124 72.28438 44.05ZM82.3625 44.01875L82.3625 29.675L83.97188 29.675L83.97188 31.01875Q84.53438 30.2375 85.2375 29.846874Q85.95625 29.440624 86.97188 29.440624Q88.3 29.440624 89.31563 30.128124Q90.33125 30.815624 90.84688 32.065624Q91.37813 33.3 91.37813 34.784374Q91.37813 36.378124 90.8 37.659374Q90.2375 38.925 89.14375 39.6125Q88.05 40.284374 86.84688 40.284374Q85.97188 40.284374 85.26875 39.909374Q84.58125 39.534374 84.12813 38.971874L84.12813 44.01875L82.3625 44.01875ZM83.95625 34.925Q83.95625 36.925 84.76875 37.878124Q85.58125 38.83125 86.7375 38.83125Q87.90938 38.83125 88.7375 37.846874Q89.58125 36.8625 89.58125 34.76875Q89.58125 32.8 88.75313 31.815624Q87.94063 30.815624 86.81563 30.815624Q85.69063 30.815624 84.81563 31.878124Q83.95625 32.925 83.95625 34.925ZM97.20625 38.471874L97.45625 40.034374Q96.72188 40.190624 96.12813 40.190624Q95.175 40.190624 94.64375 39.89375Q94.12813 39.58125 93.90938 39.096874Q93.69063 38.596874 93.69063 37.01875L93.69063 31.05L92.40938 31.05L92.40938 29.675L93.69063 29.675L93.69063 27.1125L95.44063 26.05L95.44063 29.675L97.20625 29.675L97.20625 31.05L95.44063 31.05L95.44063 37.1125Q95.44063 37.8625 95.53438 38.08125Q95.62813 38.284374 95.83125 38.425Q96.05 38.55 96.44063 38.55Q96.72188 38.55 97.20625 38.471874ZM98.72188 34.8625Q98.72188 31.9875 100.31563 30.596874Q101.65938 29.440624 103.58125 29.440624Q105.72188 29.440624 107.06563 30.846874Q108.425 32.253124 108.425 34.721874Q108.425 36.721874 107.83125 37.878124Q107.2375 39.01875 106.08125 39.659374Q104.94063 40.284374 103.58125 40.284374Q101.39375 40.284374 100.05 38.89375Q98.72188 37.4875 98.72188 34.8625ZM100.51875 34.8625Q100.51875 36.8625 101.37813 37.846874Q102.25313 38.83125 103.58125 38.83125Q104.89375 38.83125 105.75313 37.846874Q106.62813 36.846874 106.62813 34.8Q106.62813 32.878124 105.75313 31.89375Q104.87813 30.89375 103.58125 30.89375Q102.25313 30.89375 101.37813 31.89375Q100.51875 32.878124 100.51875 34.8625ZM116.3625 44.01875L116.3625 29.675L117.97188 29.675L117.97188 31.01875Q118.53438 30.2375 119.2375 29.846874Q119.95625 29.440624 120.97188 29.440624Q122.3 29.440624 123.31563 30.128124Q124.33125 30.815624 124.84688 32.065624Q125.37813 33.3 125.37813 34.784374Q125.37813 36.378124 124.8 37.659374Q124.2375 38.925 123.14375 39.6125Q122.05 40.284374 120.84688 40.284374Q119.97188 40.284374 119.26875 39.909374Q118.58125 39.534374 118.12813 38.971874L118.12813 44.01875L116.3625 44.01875ZM117.95625 34.925Q117.95625 36.925 118.76875 37.878124Q119.58125 38.83125 120.7375 38.83125Q121.90938 38.83125 122.7375 37.846874Q123.58125 36.8625 123.58125 34.76875Q123.58125 32.8 122.75313 31.815624Q121.94063 30.815624 120.81563 30.815624Q119.69063 30.815624 118.81563 31.878124Q117.95625 32.925 117.95625 34.925ZM126.72188 34.8625Q126.72188 31.9875 128.31563 30.596874Q129.65938 29.440624 131.58125 29.440624Q133.72188 29.440624 135.06563 30.846874Q136.425 32.253124 136.425 34.721874Q136.425 36.721874 135.83125 37.878124Q135.2375 39.01875 134.08125 39.659374Q132.94063 40.284374 131.58125 40.284374Q129.39375 40.284374 128.05 38.89375Q126.72188 37.4875 126.72188 34.8625ZM128.51875 34.8625Q128.51875 36.8625 129.37813 37.846874Q130.25313 38.83125 131.58125 38.83125Q132.89375 38.83125 133.75313 37.846874Q134.62813 36.846874 134.62813 34.8Q134.62813 32.878124 133.75313 31.89375Q132.87813 30.89375 131.58125 30.89375Q130.25313 30.89375 129.37813 31.89375Q128.51875 32.878124 128.51875 34.8625ZM138.34688 40.05L138.34688 29.675L139.925 29.675L139.925 31.253124Q140.53438 30.14375 141.05 29.8Q141.56563 29.440624 142.175 29.440624Q143.06563 29.440624 143.9875 30.003124L143.37813 31.64375Q142.7375 31.253124 142.09688 31.253124Q141.51875 31.253124 141.05 31.6125Q140.59688 31.95625 140.39375 32.565624Q140.1125 33.503124 140.1125 34.6125L140.1125 40.05L138.34688 40.05ZM149.20625 38.471874L149.45625 40.034374Q148.72188 40.190624 148.12813 40.190624Q147.175 40.190624 146.64375 39.89375Q146.12813 39.58125 145.90938 39.096874Q145.69063 38.596874 145.69063 37.01875L145.69063 31.05L144.40938 31.05L144.40938 29.675L145.69063 29.675L145.69063 27.1125L147.44063 26.05L147.44063 29.675L149.20625 29.675L149.20625 31.05L147.44063 31.05L147.44063 37.1125Q147.44063 37.8625 147.53438 38.08125Q147.62813 38.284374 147.83125 38.425Q148.05 38.55 148.44063 38.55Q148.72188 38.55 149.20625 38.471874ZM151.78438 40.05L151.78438 31.05L150.2375 31.05L150.2375 29.675L151.78438 29.675L151.78438 28.58125Q151.78438 27.534374 151.97188 27.01875Q152.22188 26.33125 152.8625 25.909374Q153.50313 25.4875 154.65938 25.4875Q155.40938 25.4875 156.3 25.659374L156.03438 27.190624Q155.4875 27.096874 155.00313 27.096874Q154.20625 27.096874 153.8625 27.440624Q153.53438 27.784374 153.53438 28.721874L153.53438 29.675L155.56563 29.675L155.56563 31.05L153.53438 31.05L153.53438 40.05L151.78438 40.05ZM156.72188 34.8625Q156.72188 31.9875 158.31563 30.596874Q159.65938 29.440624 161.58125 29.440624Q163.72188 29.440624 165.06563 30.846874Q166.425 32.253124 166.425 34.721874Q166.425 36.721874 165.83125 37.878124Q165.2375 39.01875 164.08125 39.659374Q162.94063 40.284374 161.58125 40.284374Q159.39375 40.284374 158.05 38.89375Q156.72188 37.4875 156.72188 34.8625ZM158.51875 34.8625Q158.51875 36.8625 159.37813 37.846874Q160.25313 38.83125 161.58125 38.83125Q162.89375 38.83125 163.75313 37.846874Q164.62813 36.846874 164.62813 34.8Q164.62813 32.878124 163.75313 31.89375Q162.87813 30.89375 161.58125 30.89375Q160.25313 30.89375 159.37813 31.89375Q158.51875 32.878124 158.51875 34.8625ZM168.33125 40.05L168.33125 25.7375L170.08125 25.7375L170.08125 40.05L168.33125 40.05ZM172.37813 27.753124L172.37813 25.7375L174.14375 25.7375L174.14375 27.753124L172.37813 27.753124ZM172.37813 40.05L172.37813 29.675L174.14375 29.675L174.14375 40.05L172.37813 40.05ZM175.72188 34.8625Q175.72188 31.9875 177.31563 30.596874Q178.65938 29.440624 180.58125 29.440624Q182.72188 29.440624 184.06563 30.846874Q185.425 32.253124 185.425 34.721874Q185.425 36.721874 184.83125 37.878124Q184.2375 39.01875 183.08125 39.659374Q181.94063 40.284374 180.58125 40.284374Q178.39375 40.284374 177.05 38.89375Q175.72188 37.4875 175.72188 34.8625ZM177.51875 34.8625Q177.51875 36.8625 178.37813 37.846874Q179.25313 38.83125 180.58125 38.83125Q181.89375 38.83125 182.75313 37.846874Q183.62813 36.846874 183.62813 34.8Q183.62813 32.878124 182.75313 31.89375Q181.87813 30.89375 180.58125 30.89375Q179.25313 30.89375 178.37813 31.89375Q177.51875 32.878124 177.51875 34.8625ZM194.9875 40.05L193.3625 40.05L193.3625 25.7375L195.1125 25.7375L195.1125 30.846874Q196.2375 29.440624 197.95625 29.440624Q198.90938 29.440624 199.76875 29.83125Q200.62813 30.221874 201.175 30.925Q201.72188 31.6125 202.03438 32.596874Q202.34688 33.58125 202.34688 34.70625Q202.34688 37.378124 201.03438 38.83125Q199.72188 40.284374 197.87813 40.284374Q196.03438 40.284374 194.9875 38.753124L194.9875 40.05ZM194.97188 34.784374Q194.97188 36.64375 195.47188 37.4875Q196.31563 38.83125 197.72188 38.83125Q198.87813 38.83125 199.70625 37.83125Q200.55 36.83125 200.55 34.846874Q200.55 32.815624 199.7375 31.8625Q198.94063 30.89375 197.8 30.89375Q196.64375 30.89375 195.8 31.89375Q194.97188 32.89375 194.97188 34.784374ZM204.34688 40.05L204.34688 29.675L205.925 29.675L205.925 31.253124Q206.53438 30.14375 207.05 29.8Q207.56563 29.440624 208.175 29.440624Q209.06563 29.440624 209.9875 30.003124L209.37813 31.64375Q208.7375 31.253124 208.09688 31.253124Q207.51875 31.253124 207.05 31.6125Q206.59688 31.95625 206.39375 32.565624Q206.1125 33.503124 206.1125 34.6125L206.1125 40.05L204.34688 40.05ZM218.47188 36.70625L220.28438 36.940624Q219.8625 38.51875 218.69063 39.409374Q217.53438 40.284374 215.72188 40.284374Q213.45625 40.284374 212.1125 38.89375Q210.78438 37.4875 210.78438 34.95625Q210.78438 32.33125 212.12813 30.89375Q213.47188 29.440624 215.62813 29.440624Q217.70625 29.440624 219.01875 30.8625Q220.34688 32.26875 220.34688 34.846874Q220.34688 35.003124 220.33125 35.315624L212.59688 35.315624Q212.69063 37.01875 213.56563 37.925Q214.44063 38.83125 215.7375 38.83125Q216.70625 38.83125 217.37813 38.33125Q218.06563 37.815624 218.47188 36.70625ZM212.69063 33.8625L218.4875 33.8625Q218.37813 32.565624 217.83125 31.909374Q216.9875 30.89375 215.64375 30.89375Q214.44063 30.89375 213.6125 31.70625Q212.78438 32.503124 212.69063 33.8625ZM229.14375 38.76875Q228.15938 39.596874 227.25313 39.940624Q226.34688 40.284374 225.31563 40.284374Q223.6125 40.284374 222.69063 39.45625Q221.76875 38.6125 221.76875 37.315624Q221.76875 36.55 222.1125 35.925Q222.47188 35.3 223.03438 34.925Q223.59688 34.534374 224.3 34.33125Q224.81563 34.20625 225.8625 34.065624Q227.9875 33.815624 228.9875 33.471874Q229.00313 33.1125 229.00313 33.003124Q229.00313 31.940624 228.50313 31.4875Q227.83125 30.89375 226.50313 30.89375Q225.25313 30.89375 224.65938 31.33125Q224.08125 31.76875 223.8 32.878124L222.08125 32.64375Q222.31563 31.534374 222.84688 30.8625Q223.37813 30.175 224.39375 29.815624Q225.40938 29.440624 226.75313 29.440624Q228.08125 29.440624 228.90938 29.753124Q229.7375 30.065624 230.12813 30.55Q230.51875 31.01875 230.675 31.7375Q230.76875 32.190624 230.76875 33.3625L230.76875 35.70625Q230.76875 38.159374 230.87813 38.815624Q230.9875 39.45625 231.33125 40.05L229.4875 40.05Q229.22188 39.503124 229.14375 38.76875ZM228.9875 34.846874Q228.03438 35.2375 226.1125 35.503124Q225.03438 35.659374 224.58125 35.8625Q224.14375 36.05 223.89375 36.425Q223.64375 36.8 223.64375 37.26875Q223.64375 37.971874 224.175 38.440624Q224.70625 38.909374 225.7375 38.909374Q226.75313 38.909374 227.53438 38.471874Q228.33125 38.01875 228.70625 37.253124Q228.9875 36.64375 228.9875 35.4875L228.9875 34.846874ZM233.37813 40.05L233.37813 25.7375L235.14375 25.7375L235.14375 33.89375L239.3 29.675L241.56563 29.675L237.6125 33.51875L241.97188 40.05L239.8 40.05L236.37813 34.753124L235.14375 35.940624L235.14375 40.05L233.37813 40.05ZM250.09688 40.05L250.09688 38.7375Q249.1125 40.284374 247.19063 40.284374Q245.95625 40.284374 244.90938 39.596874Q243.87813 38.909374 243.3 37.690624Q242.7375 36.471874 242.7375 34.878124Q242.7375 33.315624 243.25313 32.05Q243.76875 30.784374 244.8 30.1125Q245.84688 29.440624 247.1125 29.440624Q248.05 29.440624 248.78438 29.846874Q249.51875 30.2375 249.9875 30.8625L249.9875 25.7375L251.72188 25.7375L251.72188 40.05L250.09688 40.05ZM244.53438 34.878124Q244.53438 36.8625 245.37813 37.846874Q246.22188 38.83125 247.3625 38.83125Q248.51875 38.83125 249.31563 37.89375Q250.12813 36.95625 250.12813 35.01875Q250.12813 32.89375 249.3 31.89375Q248.4875 30.89375 247.28438 30.89375Q246.1125 30.89375 245.31563 31.8625Q244.53438 32.815624 244.53438 34.878124ZM253.72188 34.8625Q253.72188 31.9875 255.31563 30.596874Q256.65936 29.440624 258.58124 29.440624Q260.72186 29.440624 262.0656 30.846874Q263.425 32.253124 263.425 34.721874Q263.425 36.721874 262.83124 37.878124Q262.2375 39.01875 261.08124 39.659374Q259.9406 40.284374 258.58124 40.284374Q256.39374 40.284374 255.05 38.89375Q253.72188 37.4875 253.72188 34.8625ZM255.51875 34.8625Q255.51875 36.8625 256.3781 37.846874Q257.2531 38.83125 258.58124 38.83125Q259.89374 38.83125 260.7531 37.846874Q261.6281 36.846874 261.6281 34.8Q261.6281 32.878124 260.7531 31.89375Q259.8781 30.89375 258.58124 30.89375Q257.2531 30.89375 256.3781 31.89375Q255.51875 32.878124 255.51875 34.8625ZM267.28436 40.05L264.1125 29.675L265.925 29.675L267.58124 35.659374L268.1906 37.89375Q268.2375 37.721874 268.72186 35.753124L270.3781 29.675L272.1906 29.675L273.7375 35.690624L274.2531 37.675L274.84686 35.675L276.6281 29.675L278.33124 29.675L275.09686 40.05L273.26874 40.05L271.6125 33.83125L271.22186 32.065624L269.1125 40.05L267.28436 40.05ZM280.3625 40.05L280.3625 29.675L281.95624 29.675L281.95624 31.159374Q283.09686 29.440624 285.2531 29.440624Q286.1906 29.440624 286.97186 29.784374Q287.76874 30.1125 288.15936 30.659374Q288.55 31.20625 288.70624 31.95625Q288.8 32.45625 288.8 33.675L288.8 40.05L287.03436 40.05L287.03436 33.7375Q287.03436 32.659374 286.83124 32.128124Q286.6281 31.596874 286.09686 31.284374Q285.58124 30.971874 284.8781 30.971874Q283.7531 30.971874 282.9406 31.690624Q282.1281 32.39375 282.1281 34.378124L282.1281 40.05L280.3625 40.05ZM299.72186 44.253124Q298.26874 42.425 297.26874 39.971874Q296.26874 37.503124 296.26874 34.8625Q296.26874 32.534374 297.01874 30.409374Q297.89374 27.940624 299.72186 25.4875L300.9875 25.4875Q299.8 27.51875 299.425 28.39375Q298.83124 29.7375 298.4875 31.20625Q298.0656 33.034374 298.0656 34.878124Q298.0656 39.565624 300.9875 44.253124L299.72186 44.253124ZM310.14374 38.76875Q309.15936 39.596874 308.2531 39.940624Q307.34686 40.284374 306.3156 40.284374Q304.6125 40.284374 303.6906 39.45625Q302.76874 38.6125 302.76874 37.315624Q302.76874 36.55 303.1125 35.925Q303.47186 35.3 304.03436 34.925Q304.59686 34.534374 305.3 34.33125Q305.8156 34.20625 306.8625 34.065624Q308.9875 33.815624 309.9875 33.471874Q310.0031 33.1125 310.0031 33.003124Q310.0031 31.940624 309.5031 31.4875Q308.83124 30.89375 307.5031 30.89375Q306.2531 30.89375 305.65936 31.33125Q305.08124 31.76875 304.8 32.878124L303.08124 32.64375Q303.3156 31.534374 303.84686 30.8625Q304.3781 30.175 305.39374 29.815624Q306.40936 29.440624 307.7531 29.440624Q309.08124 29.440624 309.90936 29.753124Q310.7375 30.065624 311.1281 30.55Q311.51874 31.01875 311.675 31.7375Q311.76874 32.190624 311.76874 33.3625L311.76874 35.70625Q311.76874 38.159374 311.8781 38.815624Q311.9875 39.45625 312.33124 40.05L310.4875 40.05Q310.22186 39.503124 310.14374 38.76875ZM309.9875 34.846874Q309.03436 35.2375 307.1125 35.503124Q306.03436 35.659374 305.58124 35.8625Q305.14374 36.05 304.89374 36.425Q304.64374 36.8 304.64374 37.26875Q304.64374 37.971874 305.175 38.440624Q305.70624 38.909374 306.7375 38.909374Q307.7531 38.909374 308.53436 38.471874Q309.33124 38.01875 309.70624 37.253124Q309.9875 36.64375 309.9875 35.4875L309.9875 34.846874ZM313.65936 36.95625L315.40936 36.675Q315.55 37.721874 316.22186 38.284374Q316.89374 38.83125 318.09686 38.83125Q319.3 38.83125 319.8781 38.346874Q320.47186 37.846874 320.47186 37.190624Q320.47186 36.596874 319.95624 36.253124Q319.59686 36.01875 318.15936 35.659374Q316.22186 35.159374 315.47186 34.815624Q314.7375 34.45625 314.34686 33.83125Q313.95624 33.190624 313.95624 32.425Q313.95624 31.7375 314.26874 31.14375Q314.59686 30.55 315.14374 30.159374Q315.55 29.8625 316.2531 29.659374Q316.97186 29.440624 317.78436 29.440624Q319.0031 29.440624 319.925 29.8Q320.84686 30.14375 321.28436 30.753124Q321.72186 31.346874 321.89374 32.346874L320.175 32.58125Q320.05 31.784374 319.4875 31.346874Q318.925 30.89375 317.90936 30.89375Q316.6906 30.89375 316.175 31.3Q315.65936 31.690624 315.65936 32.221874Q315.65936 32.565624 315.8781 32.846874Q316.08124 33.128124 316.55 33.315624Q316.8156 33.409374 318.09686 33.753124Q319.97186 34.253124 320.70624 34.58125Q321.4406 34.89375 321.8625 35.503124Q322.28436 36.096874 322.28436 37.003124Q322.28436 37.878124 321.76874 38.659374Q321.2531 39.440624 320.28436 39.8625Q319.3156 40.284374 318.09686 40.284374Q316.08124 40.284374 315.01874 39.440624Q313.95624 38.596874 313.65936 36.95625ZM329.72186 34.8625Q329.72186 31.9875 331.3156 30.596874Q332.65936 29.440624 334.58124 29.440624Q336.72186 29.440624 338.0656 30.846874Q339.425 32.253124 339.425 34.721874Q339.425 36.721874 338.83124 37.878124Q338.2375 39.01875 337.08124 39.659374Q335.9406 40.284374 334.58124 40.284374Q332.39374 40.284374 331.05 38.89375Q329.72186 37.4875 329.72186 34.8625ZM331.51874 34.8625Q331.51874 36.8625 332.3781 37.846874Q333.2531 38.83125 334.58124 38.83125Q335.89374 38.83125 336.7531 37.846874Q337.6281 36.846874 337.6281 34.8Q337.6281 32.878124 336.7531 31.89375Q335.8781 30.89375 334.58124 30.89375Q333.2531 30.89375 332.3781 31.89375Q331.51874 32.878124 331.51874 34.8625ZM341.78436 40.05L341.78436 31.05L340.2375 31.05L340.2375 29.675L341.78436 29.675L341.78436 28.58125Q341.78436 27.534374 341.97186 27.01875Q342.22186 26.33125 342.8625 25.909374Q343.5031 25.4875 344.65936 25.4875Q345.40936 25.4875 346.3 25.659374L346.03436 27.190624Q345.4875 27.096874 345.0031 27.096874Q344.20624 27.096874 343.8625 27.440624Q343.53436 27.784374 343.53436 28.721874L343.53436 29.675L345.5656 29.675L345.5656 31.05L343.53436 31.05L343.53436 40.05L341.78436 40.05ZM352.8781 32.9875Q352.8781 30.45625 353.39374 28.909374Q353.925 27.346874 354.95624 26.51875Q355.9875 25.675 357.55 25.675Q358.70624 25.675 359.5656 26.14375Q360.4406 26.596874 361.0031 27.471874Q361.5656 28.346874 361.89374 29.6125Q362.22186 30.8625 362.22186 32.9875Q362.22186 35.503124 361.6906 37.05Q361.175 38.596874 360.14374 39.45625Q359.1281 40.3 357.55 40.3Q355.47186 40.3 354.3 38.815624Q352.8781 37.01875 352.8781 32.9875ZM354.6906 32.9875Q354.6906 36.51875 355.5031 37.690624Q356.33124 38.846874 357.55 38.846874Q358.7531 38.846874 359.58124 37.675Q360.40936 36.503124 360.40936 32.9875Q360.40936 29.45625 359.58124 28.3Q358.7531 27.128124 357.53436 27.128124Q356.3156 27.128124 355.59686 28.159374Q354.6906 29.45625 354.6906 32.9875ZM366.58124 32.284374Q365.4875 31.878124 364.95624 31.14375Q364.4406 30.39375 364.4406 29.3625Q364.4406 27.8 365.5656 26.7375Q366.6906 25.675 368.55 25.675Q370.425 25.675 371.5656 26.76875Q372.70624 27.846874 372.70624 29.409374Q372.70624 30.409374 372.175 31.14375Q371.65936 31.878124 370.59686 32.284374Q371.925 32.721874 372.6125 33.675Q373.3 34.628124 373.3 35.95625Q373.3 37.8 371.9875 39.05Q370.6906 40.3 368.58124 40.3Q366.45624 40.3 365.15936 39.05Q363.8625 37.784374 363.8625 35.909374Q363.8625 34.51875 364.5656 33.58125Q365.28436 32.628124 366.58124 32.284374ZM366.2375 29.3Q366.2375 30.315624 366.89374 30.971874Q367.55 31.6125 368.58124 31.6125Q369.59686 31.6125 370.2531 30.971874Q370.90936 30.33125 370.90936 29.409374Q370.90936 28.440624 370.2375 27.784374Q369.5656 27.1125 368.5656 27.1125Q367.5656 27.1125 366.89374 27.76875Q366.2375 28.409374 366.2375 29.3ZM365.675 35.925Q365.675 36.675 366.01874 37.378124Q366.3781 38.08125 367.08124 38.471874Q367.78436 38.846874 368.59686 38.846874Q369.8625 38.846874 370.675 38.034374Q371.5031 37.221874 371.5031 35.971874Q371.5031 34.70625 370.65936 33.878124Q369.8156 33.05 368.53436 33.05Q367.3 33.05 366.4875 33.878124Q365.675 34.690624 365.675 35.925ZM374.05 40.3L378.20624 25.4875L379.6125 25.4875L375.47186 40.3L374.05 40.3ZM381.01874 33.08125Q381.01874 29.51875 382.925 27.503124Q384.84686 25.471874 387.8781 25.471874Q389.8625 25.471874 391.4406 26.425Q393.03436 27.378124 393.8625 29.08125Q394.70624 30.76875 394.70624 32.909374Q394.70624 35.08125 393.83124 36.8Q392.95624 38.51875 391.33124 39.409374Q389.72186 40.3 387.8625 40.3Q385.84686 40.3 384.2531 39.33125Q382.65936 38.346874 381.83124 36.659374Q381.01874 34.95625 381.01874 33.08125ZM382.97186 33.1125Q382.97186 35.690624 384.3625 37.190624Q385.7531 38.675 387.84686 38.675Q389.9875 38.675 391.3625 37.175Q392.7531 35.659374 392.7531 32.89375Q392.7531 31.159374 392.15936 29.8625Q391.58124 28.55 390.4406 27.83125Q389.3 27.1125 387.8781 27.1125Q385.8781 27.1125 384.425 28.503124Q382.97186 29.878124 382.97186 33.1125ZM404.14374 36.253124L405.8625 36.471874Q405.58124 38.26875 404.40936 39.284374Q403.2531 40.284374 401.55 40.284374Q399.425 40.284374 398.1281 38.89375Q396.83124 37.503124 396.83124 34.909374Q396.83124 33.221874 397.3781 31.971874Q397.9406 30.70625 399.08124 30.08125Q400.22186 29.440624 401.5656 29.440624Q403.2531 29.440624 404.3156 30.3Q405.39374 31.159374 405.70624 32.721874L403.9875 32.9875Q403.7531 31.940624 403.1281 31.425Q402.5031 30.89375 401.6281 30.89375Q400.3 30.89375 399.47186 31.846874Q398.64374 32.8 398.64374 34.846874Q398.64374 36.940624 399.4406 37.89375Q400.2375 38.83125 401.53436 38.83125Q402.5656 38.83125 403.2531 38.20625Q403.95624 37.565624 404.14374 36.253124ZM411.20624 38.471874L411.45624 40.034374Q410.72186 40.190624 410.1281 40.190624Q409.175 40.190624 408.64374 39.89375Q408.1281 39.58125 407.90936 39.096874Q407.6906 38.596874 407.6906 37.01875L407.6906 31.05L406.40936 31.05L406.40936 29.675L407.6906 29.675L407.6906 27.1125L409.4406 26.05L409.4406 29.675L411.20624 29.675L411.20624 31.05L409.4406 31.05L409.4406 37.1125Q409.4406 37.8625 409.53436 38.08125Q409.6281 38.284374 409.83124 38.425Q410.05 38.55 410.4406 38.55Q410.72186 38.55 411.20624 38.471874ZM412.05 40.3L416.20624 25.4875L417.6125 25.4875L413.47186 40.3L412.05 40.3ZM428.1125 38.3625L428.1125 40.05L418.65936 40.05Q418.64374 39.409374 418.8625 38.83125Q419.22186 37.8625 420.01874 36.925Q420.8156 35.9875 422.3156 34.753124Q424.65936 32.846874 425.47186 31.7375Q426.3 30.6125 426.3 29.6125Q426.3 28.565624 425.55 27.846874Q424.8 27.128124 423.59686 27.128124Q422.33124 27.128124 421.5656 27.89375Q420.8 28.659374 420.8 30.003124L418.9875 29.815624Q419.175 27.8 420.3781 26.7375Q421.59686 25.675 423.64374 25.675Q425.6906 25.675 426.89374 26.815624Q428.09686 27.95625 428.09686 29.64375Q428.09686 30.503124 427.7375 31.346874Q427.39374 32.175 426.58124 33.096874Q425.76874 34.003124 423.8781 35.6125Q422.28436 36.940624 421.83124 37.409374Q421.39374 37.878124 421.09686 38.3625L428.1125 38.3625ZM429.8781 32.9875Q429.8781 30.45625 430.39374 28.909374Q430.925 27.346874 431.95624 26.51875Q432.9875 25.675 434.55 25.675Q435.70624 25.675 436.5656 26.14375Q437.4406 26.596874 438.0031 27.471874Q438.5656 28.346874 438.89374 29.6125Q439.22186 30.8625 439.22186 32.9875Q439.22186 35.503124 438.6906 37.05Q438.175 38.596874 437.14374 39.45625Q436.1281 40.3 434.55 40.3Q432.47186 40.3 431.3 38.815624Q429.8781 37.01875 429.8781 32.9875ZM431.6906 32.9875Q431.6906 36.51875 432.5031 37.690624Q433.33124 38.846874 434.55 38.846874Q435.7531 38.846874 436.58124 37.675Q437.40936 36.503124 437.40936 32.9875Q437.40936 29.45625 436.58124 28.3Q435.7531 27.128124 434.53436 27.128124Q433.3156 27.128124 432.59686 28.159374Q431.6906 29.45625 431.6906 32.9875ZM450.1125 38.3625L450.1125 40.05L440.65936 40.05Q440.64374 39.409374 440.8625 38.83125Q441.22186 37.8625 442.01874 36.925Q442.8156 35.9875 444.3156 34.753124Q446.65936 32.846874 447.47186 31.7375Q448.3 30.6125 448.3 29.6125Q448.3 28.565624 447.55 27.846874Q446.8 27.128124 445.59686 27.128124Q444.33124 27.128124 443.5656 27.89375Q442.8 28.659374 442.8 30.003124L440.9875 29.815624Q441.175 27.8 442.3781 26.7375Q443.59686 25.675 445.64374 25.675Q447.6906 25.675 448.89374 26.815624Q450.09686 27.95625 450.09686 29.64375Q450.09686 30.503124 449.7375 31.346874Q449.39374 32.175 448.58124 33.096874Q447.76874 34.003124 445.8781 35.6125Q444.28436 36.940624 443.83124 37.409374Q443.39374 37.878124 443.09686 38.3625L450.1125 38.3625ZM461.1125 38.3625L461.1125 40.05L451.65936 40.05Q451.64374 39.409374 451.8625 38.83125Q452.22186 37.8625 453.01874 36.925Q453.8156 35.9875 455.3156 34.753124Q457.65936 32.846874 458.47186 31.7375Q459.3 30.6125 459.3 29.6125Q459.3 28.565624 458.55 27.846874Q457.8 27.128124 456.59686 27.128124Q455.33124 27.128124 454.5656 27.89375Q453.8 28.659374 453.8 30.003124L451.9875 29.815624Q452.175 27.8 453.3781 26.7375Q454.59686 25.675 456.64374 25.675Q458.6906 25.675 459.89374 26.815624Q461.09686 27.95625 461.09686 29.64375Q461.09686 30.503124 460.7375 31.346874Q460.39374 32.175 459.58124 33.096874Q458.76874 34.003124 456.8781 35.6125Q455.28436 36.940624 454.83124 37.409374Q454.39374 37.878124 454.09686 38.3625L461.1125 38.3625ZM464.51874 44.253124L463.26874 44.253124Q466.175 39.565624 466.175 34.878124Q466.175 33.034374 465.76874 31.2375Q465.425 29.76875 464.83124 28.425Q464.45624 27.534374 463.26874 25.4875L464.51874 25.4875Q466.3625 27.940624 467.2375 30.409374Q467.9875 32.534374 467.9875 34.8625Q467.9875 37.503124 466.97186 39.971874Q465.97186 42.425 464.51874 44.253124Z" fill-rule="nonzero"/></svg>